<svg xmlns="http://www.w3.org/2000/svg" xml:space="preserve" viewBox="0 0 64 64">
  <path fill="#fff" stroke="#000" stroke-width="4.925" d="M7.385 2.46a3.697 3.697 0 0 0-3.692 3.694v35.692a3.697 3.697 0 0 0 3.692 3.693h30.77c.382 0 .741.178.974.48l11.564 15.036a1.246 1.246 0 0 0 2.23-.76V46.77c0-.681.55-1.23 1.231-1.23h2.461a3.697 3.697 0 0 0 3.692-3.694V6.154a3.697 3.697 0 0 0-3.692-3.693z" paint-order="stroke fill markers"/>
  <path fill="#c92a2a" d="M39.909 8c-3.121 0-5.861 1.353-7.925 3.915C29.921 9.353 27.192 8 24.092 8c-5.67 0-10.282 4.633-10.282 10.327 0 1.51.227 2.91.613 4.225h5.485l1.255-2.508a.743.743 0 0 1 .689-.401.73.73 0 0 1 .643.47l1.297 3.46 2.039-9.898a.727.727 0 0 1 .712-.582h.009a.727.727 0 0 1 .707.598l2.447 13.456 2.707-7.04a.727.727 0 0 1 .678-.465h.003a.73.73 0 0 1 .68.471l1.665 4.442 1.038-1.661a.727.727 0 0 1 .616-.342h3.84a1.449 1.449 0 0 1 1.254-.727 1.455 1.455 0 1 1 0 2.91 1.45 1.45 0 0 1-1.254-.727h-3.437l-1.605 2.568a.743.743 0 0 1-.69.338.729.729 0 0 1-.608-.468l-1.51-4.027-2.95 7.67a.727.727 0 0 1-1.396-.13l-2.239-12.314-1.79 8.692a.728.728 0 0 1-1.394.109l-1.596-4.26-.71 1.419a.726.726 0 0 1-.65.403h-5.432c2.407 5.897 8.25 9.832 12.798 12.89 1.472.99 3.786 2.927 3.809 2.947a.692.692 0 0 0 .449.155.83.83 0 0 0 .526-.188c.97-.812 2.298-1.925 3.768-2.913 5.872-3.95 13.914-9.357 13.914-18.572C50.19 12.633 45.578 8 39.909 8Z"/>
</svg>
